HIERARCHY
ROOT hip
{
	OFFSET 0.000000 0.000000 0.000000 
	CHANNELS 6 Xposition Yposition Zposition Xrotation Zrotation Yrotation
	JOINT abdomen
	{
		OFFSET 0.000000 3.402643 0.000000 
		CHANNELS 3 Xrotation Zrotation Yrotation
		JOINT chest
		{
			OFFSET 0.000000 8.438565 -0.680529 
			CHANNELS 3 Xrotation Zrotation Yrotation
			JOINT neck
			{
				OFFSET 0.000000 10.207942 -0.272212 
				CHANNELS 3 Xrotation Zrotation Yrotation
				JOINT head
				{
					OFFSET 0.000000 3.130431 0.000000 
					CHANNELS 3 Xrotation Zrotation Yrotation
					End Site
					{
						OFFSET 0.000000 3.130435 0.000000 
					}
				}
			}
			JOINT lCollar
			{
				OFFSET 3.470700 6.669187 -0.816635 
				CHANNELS 3 Yrotation Zrotation Xrotation
				JOINT lShldr
				{
					OFFSET 3.198488 0.000000 0.000000 
					CHANNELS 3 Zrotation Yrotation Xrotation
					JOINT lForeArm
					{
						OFFSET 10.139888 0.000000 0.000000 
						CHANNELS 3 Yrotation Zrotation Xrotation
						JOINT lHand
						{
							OFFSET 8.370511 0.000000 0.000000 
							CHANNELS 3 Zrotation Yrotation Xrotation
							End Site
							{
								OFFSET 4.083176 0.000000 0.000000 
							}
						}
					}
				}
			}
			JOINT rCollar
			{
				OFFSET -3.470700 6.669187 -0.816635 
				CHANNELS 3 Yrotation Zrotation Xrotation
				JOINT rShldr
				{
					OFFSET -3.198488 0.000000 0.000000 
					CHANNELS 3 Zrotation Yrotation Xrotation
					JOINT rForeArm
					{
						OFFSET -10.139888 0.000000 0.000000 
						CHANNELS 3 Yrotation Zrotation Xrotation
						JOINT rHand
						{
							OFFSET -8.370511 0.000000 0.000000 
							CHANNELS 3 Zrotation Yrotation Xrotation
							End Site
							{
								OFFSET -4.083176 0.000000 0.000000 
							}
						}
					}
				}
			}
		}
	}
	JOINT lThigh
	{
		OFFSET 5.308129 -1.633274 1.361059 
		CHANNELS 3 Xrotation Zrotation Yrotation
		JOINT lShin
		{
			OFFSET -2.041588 -20.007561 0.000000 
			CHANNELS 3 Xrotation Zrotation Yrotation
			JOINT lFoot
			{
				OFFSET 0.000000 -19.190928 -1.224953 
				CHANNELS 3 Xrotation Yrotation Zrotation
				End Site
				{
					OFFSET 0.000000 -2.449906 4.627600 
				}
			}
		}
	}
	JOINT rThigh
	{
		OFFSET -5.308129 -1.633274 1.361059 
		CHANNELS 3 Xrotation Zrotation Yrotation
		JOINT rShin
		{
			OFFSET 2.041588 -20.007561 0.000000 
			CHANNELS 3 Xrotation Zrotation Yrotation
			JOINT rFoot
			{
				OFFSET 0.000000 -19.190928 -1.224953 
				CHANNELS 3 Xrotation Yrotation Zrotation
				End Site
				{
					OFFSET 0.000000 -2.449906 4.627600 
				}
			}
		}
	}
}
MOTION
Frames: 18
Frame Time: 0.011111
2.069275 51.852619 -16.991796 -4.735068 -5.333263 2.223703 29.421528 16.719086 -7.497588 -22.465273 4.681708 -4.084519 -17.155531 4.088947 4.635254 17.383224 -19.548449 7.860989 -13.725516 -13.189672 -3.762996 -31.483295 -75.073853 55.391193 -74.709610 8.325397 19.474417 8.524705 12.647240 23.736925 8.354301 9.292459 -1.514610 65.812035 52.137138 82.318100 86.281311 -1.308908 30.226698 -8.534408 -12.637552 47.943218 5.785502 15.226595 13.653703 25.014973 -5.587939 -4.183971 -33.511360 -7.800906 -6.195036 -14.921048 -16.805597 -1.286050 40.001270 4.648036 6.067902 1.411959 -11.458686 3.378415 
2.105023 51.731968 -16.911362 -4.848174 -4.993899 2.833558 28.909260 16.295799 -6.351166 -22.209513 3.948355 -3.699866 -17.435575 3.882745 4.246073 18.308926 -19.149635 6.919397 -13.725516 -13.189672 -3.762996 -24.089739 -75.718056 51.673820 -77.861656 7.375124 21.198761 8.524705 12.647240 24.459579 8.354301 9.292459 -1.514610 65.885231 52.118584 82.569687 86.278244 -1.307740 30.207020 -8.534408 -12.637552 45.902203 5.643328 14.980154 13.662035 25.509794 -5.562593 -4.242973 -33.588062 -8.665841 -6.799520 -15.262705 -17.244892 -1.227504 41.078915 4.560151 6.189068 0.610122 -11.871353 3.287603 
2.139495 51.626316 -16.824223 -4.862187 -4.630241 3.528962 28.350533 15.747458 -5.212936 -22.258537 3.780674 -3.327016 -17.640715 3.361202 3.961611 19.559364 -18.694517 6.039040 -13.725516 -13.189672 -3.762996 -16.764944 -76.055824 46.315243 -80.528427 6.224737 22.808756 8.524705 12.647240 25.016218 8.354301 9.292459 -1.514610 65.330551 51.414757 82.080139 86.281883 -1.309528 30.236439 -8.534408 -12.637552 44.046734 5.429141 14.677325 13.590696 25.962849 -5.538187 -4.326685 -33.679539 -9.104703 -7.101802 -15.660200 -17.739624 -1.067769 42.155136 4.472388 6.318686 -0.112698 -12.248882 3.179967 
2.178116 51.528328 -16.730062 -4.758327 -4.336442 4.299731 27.585224 15.293257 -4.118820 -22.385050 3.384799 -2.961312 -17.305294 3.055557 3.568287 20.237713 -18.276964 5.082265 -13.725516 -13.189672 -3.762996 -8.780241 -75.996384 39.619373 -82.724831 4.912950 24.324665 8.524705 12.647240 23.668566 8.354301 9.292459 -1.514610 64.642601 50.147778 81.002510 86.290489 -1.322760 30.294399 -8.534408 -12.637552 42.493999 5.103321 14.378138 13.286784 26.315491 -5.518912 -4.373555 -33.804264 -9.276812 -7.227640 -16.127298 -18.196810 -0.930866 43.190304 4.394319 6.447237 -0.676729 -12.476836 3.098699 
2.226313 51.429379 -16.637821 -4.751205 -4.015626 5.095539 27.014608 14.827351 -3.023822 -22.394146 2.927223 -2.595286 -16.970058 2.780638 3.123298 20.513590 -17.692448 4.129820 -13.725516 -13.189672 -3.762996 -0.634663 -75.421867 31.755169 -84.204979 3.725898 25.615496 8.524705 12.647240 20.397081 8.354301 9.292459 -1.514610 63.695011 48.622654 79.445648 86.304817 -1.347938 30.390654 -8.534408 -12.637552 41.702984 4.995863 14.006413 12.830317 26.505342 -5.519570 -4.381574 -34.004604 -9.366894 -7.300751 -16.461399 -18.687521 -0.840299 44.176819 4.299701 6.564224 -1.042348 -12.480456 3.019773 
2.271638 51.339054 -16.551321 -4.850940 -3.763350 5.885474 26.694218 14.404906 -1.876634 -22.256756 2.465704 -2.222481 -16.928066 2.636739 2.627292 20.850595 -17.030809 3.149508 -13.725516 -13.189672 -3.762996 7.307999 -74.247971 23.691431 -85.120293 2.768087 26.687704 8.524705 12.647240 14.850204 8.354301 9.292459 -1.514610 62.750969 46.922562 77.448311 86.322647 -1.373993 30.506609 -8.534408 -12.637552 41.605328 5.025020 13.733788 12.463387 26.634666 -5.520028 -4.402782 -34.239624 -9.375997 -7.314932 -16.667143 -19.088522 -0.796223 45.152374 4.228274 6.649413 -1.344572 -12.447009 2.971258 
2.308024 51.271069 -16.466099 -4.949739 -3.631355 6.724380 26.462721 13.997905 -0.632798 -22.129404 2.100276 -1.835431 -17.023018 2.556224 2.046017 21.216776 -16.327492 2.044859 -13.725516 -13.189672 -3.762996 13.472330 -72.753532 16.976852 -85.537971 2.236167 27.372437 8.524705 12.647240 7.359972 8.354301 9.292459 -1.514610 61.700096 44.771801 74.979546 86.354134 -1.432408 30.689028 -8.534408 -12.637552 41.654156 5.035214 13.675607 12.358006 26.747894 -5.499888 -4.417687 -34.351379 -9.343495 -7.303489 -16.824469 -19.343662 -0.896345 46.166946 4.130619 6.765222 -1.645260 -12.552493 2.919593 
2.358774 51.195103 -16.387260 -5.260981 -3.313470 7.444029 26.672306 13.327949 0.640507 -22.148821 1.866930 -1.429014 -17.519415 1.973434 1.710837 22.181509 -14.832169 1.319501 -13.725516 -13.189672 -3.762996 18.497150 -70.929070 11.682216 -85.715164 1.975935 27.736681 8.524705 12.647240 1.266222 8.354301 9.292459 -1.514610 60.416992 42.214626 72.269447 86.393311 -1.518736 30.869795 -8.534408 -12.637552 42.122902 5.437247 13.424339 12.449303 26.758171 -5.499994 -4.409812 -34.356178 -9.356667 -7.327023 -16.859499 -19.758884 -0.864713 47.258850 4.042733 6.880589 -1.842189 -12.543203 2.882656 
2.410801 51.119453 -16.314486 -5.658308 -3.047173 8.132806 27.072618 12.765315 1.890195 -22.197346 1.554395 -1.050280 -18.324661 0.999690 1.682385 23.685406 -12.711832 1.136532 -13.725516 -13.189672 -3.762996 22.433502 -68.999474 8.029721 -85.700462 2.000272 27.705185 8.524705 12.647240 -4.378310 8.354301 9.292459 -1.514610 59.085533 39.232014 69.704903 86.447258 -1.635595 31.107691 -8.534408 -12.637552 42.347515 5.895995 13.230095 12.578963 26.797405 -5.500118 -4.432764 -34.297657 -9.521749 -7.436489 -16.881107 -20.054205 -0.728843 48.419651 3.925609 7.007428 -1.797770 -12.481947 2.900117 
2.454531 51.054344 -16.254799 -6.045315 -2.877197 8.760003 27.584261 12.285407 3.175101 -22.294611 1.193131 -0.670361 -18.637886 0.421237 1.462235 24.209734 -11.330303 0.701613 -13.725516 -13.189672 -3.762996 25.612440 -66.946030 5.685014 -85.641136 2.086416 27.570829 8.524705 12.647240 -9.397840 8.354301 9.292459 -1.514610 57.918903 36.441895 67.165413 86.459259 -1.656666 31.155355 -8.534408 -12.637552 42.581894 6.257232 13.161366 12.727985 26.958693 -5.490884 -4.444761 -34.278584 -9.688588 -7.552365 -17.000893 -20.164543 -0.480602 49.637882 3.808570 7.146493 -1.550554 -12.285438 2.941537 
2.486130 51.001991 -16.203089 -6.344499 -2.785393 9.349322 28.042572 11.779012 4.509490 -22.411310 0.765389 -0.268002 -18.591803 0.397040 0.965547 23.958874 -10.777587 -0.145216 -13.725516 -13.189672 -3.762996 27.810383 -65.210533 4.594449 -85.536491 2.235053 27.362379 8.524705 12.647240 -14.251354 8.354301 9.292459 -1.514610 56.928688 33.813087 64.697929 86.439102 -1.615184 31.079498 -8.534408 -12.637552 42.542828 6.361452 13.225474 12.950455 27.338648 -5.481127 -4.496159 -34.306171 -9.927265 -7.741221 -17.349258 -20.151279 -0.078693 50.914963 3.691363 7.259743 -1.095108 -12.105622 3.013914 
2.500811 50.955711 -16.158087 -6.518332 -2.718185 9.854792 28.389807 11.328250 5.602888 -22.528076 0.395470 0.065750 -18.651232 0.236307 0.669163 23.976730 -9.952159 -0.635688 -13.725516 -13.189672 -3.762996 29.494581 -63.668423 4.357816 -85.341759 2.497984 27.025940 8.524705 12.647240 -19.495495 8.354301 9.292459 -1.514610 56.047749 31.541605 62.724880 86.394997 -1.519172 30.879528 -8.534408 -12.637552 42.230328 6.351661 13.303155 13.148319 27.722006 -5.450933 -4.542828 -34.307915 -10.160550 -7.889785 -18.013781 -20.025221 0.423534 52.357056 3.554745 7.414280 -0.499671 -12.076874 3.082550 
2.496024 50.917412 -16.109251 -6.603421 -2.600982 10.387915 28.587051 10.893071 6.342995 -22.674271 0.140937 0.308796 -18.534363 -0.166644 0.577831 24.018473 -8.812757 -0.749942 -13.725516 -13.189672 -3.762996 30.397532 -62.734196 5.032854 -85.008255 2.902527 26.537355 8.524705 12.647240 -25.501354 8.354301 9.292459 -1.514610 55.318604 29.601486 61.272419 86.341507 -1.408863 30.612204 -8.534408 -12.637552 41.888531 6.312642 13.235489 12.919421 27.941826 -5.446498 -4.562009 -34.341801 -10.114424 -7.869515 -18.791719 -19.866131 0.894431 53.827816 3.390369 7.574028 -0.588651 -12.277102 3.090738 
2.465063 50.896664 -16.050520 -6.656770 -2.505455 11.019357 28.684694 10.492472 6.823440 -22.898794 0.109991 0.475728 -18.231970 -0.333060 0.518171 24.055738 -8.445745 -0.858308 -13.725516 -13.189672 -3.762996 30.745314 -62.344273 6.142652 -84.462334 3.480466 25.888657 8.524705 12.647240 -31.634169 8.354301 9.292459 -1.514610 54.585369 27.890812 60.140896 86.297188 -1.334751 30.332672 -8.534408 -12.637552 40.990093 6.236448 13.247519 12.648853 28.059385 -5.451759 -4.602827 -34.337402 -10.096205 -7.855418 -19.498848 -19.645565 1.178843 55.161121 3.243946 7.689373 -1.132693 -12.623232 2.997005 
2.414632 50.891872 -15.982214 -6.686862 -2.454859 11.792368 28.780361 10.120072 7.144643 -23.094166 0.244564 0.606262 -18.231874 -0.274243 0.478243 24.488935 -8.615409 -0.971718 -13.725516 -13.189672 -3.762996 30.483957 -62.633701 7.397902 -83.697899 4.172507 25.137939 8.524705 12.647240 -38.196663 8.354301 9.292459 -1.514610 53.765694 26.496786 59.160217 86.265137 -1.291971 30.110138 -8.534408 -12.637552 39.769382 6.119592 13.375316 12.460455 28.151972 -5.436438 -4.597406 -34.332779 -10.200732 -7.947383 -20.005142 -19.341621 1.166524 56.306705 3.126608 7.801094 -2.548161 -12.903807 2.748530 
2.367393 50.904007 -15.898268 -6.769862 -2.425183 12.689836 28.964224 9.905979 7.274953 -23.221447 0.560816 0.649600 -18.349098 -0.294915 0.475482 24.818239 -8.873204 -1.072398 -13.725516 -13.189672 -3.762996 29.604126 -63.505848 8.553718 -82.535065 5.045870 24.185057 8.524705 12.647240 -43.938854 8.354301 9.292459 -1.514610 52.803577 25.402048 58.475941 86.242920 -1.272274 29.954700 -8.534408 -12.637552 38.470566 6.098441 13.499898 12.048894 28.112507 -5.436311 -4.584168 -34.219467 -10.352579 -8.062563 -20.193600 -19.041483 0.942427 56.874043 3.068037 7.865471 -4.533927 -13.026031 2.356816 
2.326537 50.932091 -15.799323 -6.897239 -2.397013 13.620233 29.177311 9.888542 7.092255 -23.320099 1.184752 0.589027 -18.271463 -0.521424 0.632023 24.668024 -9.320001 -0.914047 -13.725516 -13.189672 -3.762996 28.350210 -64.305634 9.542964 -81.115845 5.914194 23.190346 8.524705 12.647240 -48.704475 8.354301 9.292459 -1.514610 51.893456 24.651861 58.011814 86.229782 -1.265830 29.856991 -8.534408 -12.637552 37.171734 6.150770 13.620848 11.580338 28.011606 -5.442266 -4.586575 -34.007046 -10.685044 -8.266389 -20.073214 -18.687069 0.693274 56.835346 3.076110 7.847184 -6.493122 -12.988099 1.990393 
2.258551 50.965607 -15.720484 -7.007853 -2.313112 14.365797 29.554379 9.938342 6.688241 -23.359716 1.432959 0.458429 -18.192280 -0.394078 0.990236 24.222696 -9.774096 -0.205124 -13.725516 -13.189672 -3.762996 27.432896 -64.992271 10.245555 -79.415390 6.752175 22.109421 8.524705 12.647240 -51.682995 8.354301 9.292459 -1.514610 51.450428 24.673557 57.944061 86.213074 -1.267608 29.739433 -8.534408 -12.637552 36.195171 6.198900 13.717531 11.198579 27.942614 -5.442033 -4.560981 -33.778347 -11.011325 -8.484052 -19.992880 -18.236101 0.702114 56.296593 3.126607 7.809926 -8.394967 -12.854115 1.572854 
